<?xml version="1.0" encoding="UTF-8"?>
<svg version="1.1" xmlns="http://www.w3.org/2000/svg" width="96" height="96">
<path d="M0 0 C7.01582827 5.07122369 13.09655113 11.67833242 15.1875 20.25 C16.46306014 30.77614407 15.61470652 39.40616383 9.1875 48.25 C2.25470014 56.31368211 -6.44118931 61.02200887 -16.8125 63.25 C-18.29354679 63.33925012 -19.77798686 63.38060948 -21.26171875 63.3828125 C-22.11056641 63.38410156 -22.95941406 63.38539062 -23.83398438 63.38671875 C-24.71376953 63.38285156 -25.59355469 63.37898438 -26.5 63.375 C-27.36044922 63.37886719 -28.22089844 63.38273437 -29.10742188 63.38671875 C-33.32774127 63.38035806 -37.38573495 63.2138755 -41.56640625 62.62109375 C-45.53583992 62.13044529 -48.30350892 62.69495943 -52.0625 64.1875 C-55.86163222 65.66996561 -58.71972869 66.49646251 -62.8125 66.25 C-63.73858258 63.71909107 -63.94277509 62.59099655 -62.96484375 60.03125 C-62.15437184 58.5093349 -61.34186752 56.98850041 -60.52734375 55.46875 C-59.57779474 53.28648447 -59.57779474 53.28648447 -60.5 51.28515625 C-60.933125 50.61355469 -61.36625 49.94195312 -61.8125 49.25 C-62.29847656 48.43402344 -62.78445312 47.61804688 -63.28515625 46.77734375 C-64.34692603 45.04772861 -65.40942879 43.31856321 -66.47265625 41.58984375 C-70.07232015 35.30355023 -69.69277206 27.29217647 -68.8125 20.25 C-66.18247336 11.18524415 -60.53647767 4.52517469 -52.8125 -0.75 C-36.14375727 -9.31017946 -16.24854674 -9.94476272 0 0 Z " fill="#DAEDF2" transform="translate(74.8125,19.75)"/>
<path d="M0 0 C2.625 0.375 2.625 0.375 5 1 C5.625 3.375 5.625 3.375 6 6 C5.34 6.66 4.68 7.32 4 8 C1.375 7.625 1.375 7.625 -1 7 C-1.625 4.625 -1.625 4.625 -2 2 C-1.34 1.34 -0.68 0.68 0 0 Z " fill="#53849A" transform="translate(62,44)"/>
<path d="M0 0 C2.625 0.375 2.625 0.375 5 1 C5.625 3.375 5.625 3.375 6 6 C5.34 6.66 4.68 7.32 4 8 C1.375 7.625 1.375 7.625 -1 7 C-1.625 4.625 -1.625 4.625 -2 2 C-1.34 1.34 -0.68 0.68 0 0 Z " fill="#528399" transform="translate(46,44)"/>
<path d="M0 0 C2.625 0.375 2.625 0.375 5 1 C5.625 3.375 5.625 3.375 6 6 C5.34 6.66 4.68 7.32 4 8 C1.375 7.625 1.375 7.625 -1 7 C-1.625 4.625 -1.625 4.625 -2 2 C-1.34 1.34 -0.68 0.68 0 0 Z " fill="#528399" transform="translate(30,44)"/>
<path d="M0 0 C1.65 0.33 3.3 0.66 5 1 C5 1.99 5 2.98 5 4 C3.02 4 1.04 4 -1 4 C-0.67 2.68 -0.34 1.36 0 0 Z " fill="#35677D" transform="translate(46,44)"/>
<path d="M0 0 C1.65 0.33 3.3 0.66 5 1 C5 1.99 5 2.98 5 4 C3.02 4 1.04 4 -1 4 C-0.67 2.68 -0.34 1.36 0 0 Z " fill="#35677D" transform="translate(30,44)"/>
<path d="M0 0 C1.65 0.33 3.3 0.66 5 1 C5 1.99 5 2.98 5 4 C3.02 4 1.04 4 -1 4 C-0.67 2.68 -0.34 1.36 0 0 Z " fill="#34657B" transform="translate(62,44)"/>
</svg>
