<?xml version="1.0" encoding="UTF-8"?>
<svg version="1.1" xmlns="http://www.w3.org/2000/svg" width="300" height="300">
<path d="M0 0 C6.26946973 5.01219804 11.96201313 10.63486469 17.63134766 16.30419922 C18.17017578 16.79662109 18.70900391 17.28904297 19.26416016 17.79638672 C42.2987308 39.14255952 57.20964623 75.01113115 58.82421875 106.00683594 C59.71209298 149.83553655 50.51224067 189.12287762 19.95556641 221.90185547 C17.54129282 224.39728111 15.08648669 226.84906018 12.63134766 229.30419922 C12.13892578 229.84302734 11.64650391 230.38185547 11.13916016 230.93701172 C-10.20701264 253.97158237 -46.07558428 268.8824978 -77.07128906 270.49707031 C-120.22592973 271.37128955 -159.89178319 262.64642293 -192.18505859 232.31201172 C-194.38473416 230.24017223 -194.38473416 230.24017223 -196.94677734 228.26123047 C-222.69280358 207.45678024 -237.38716864 170.1496753 -241.36865234 138.30419922 C-241.87365778 132.47781991 -241.90525823 126.64859752 -241.86865234 120.80419922 C-241.86655762 120.02760956 -241.86446289 119.2510199 -241.86230469 118.45089722 C-241.62949349 76.26087382 -224.83481188 40.77035875 -195.36865234 11.30419922 C-194.87623047 10.76537109 -194.38380859 10.22654297 -193.87646484 9.67138672 C-145.28102657 -42.76775854 -54.15361881 -41.70414692 0 0 Z M-176.36865234 33.30419922 C-177.68865234 34.95419922 -179.00865234 36.60419922 -180.36865234 38.30419922 C-123.27865234 38.63419922 -66.18865234 38.96419922 -7.36865234 39.30419922 C-23.36865234 55.30419922 -23.36865234 55.30419922 -31.36865234 62.30419922 C-32.72062431 63.59749185 -34.05891592 64.90565112 -35.36865234 66.24169922 C-36.02865234 66.90943359 -36.68865234 67.57716797 -37.36865234 68.26513672 C-38.02865234 68.93802734 -38.68865234 69.61091797 -39.36865234 70.30419922 C-43.88840546 74.91222877 -48.47797461 79.31437719 -53.36865234 83.52685547 C-56.85836512 86.62806507 -60.10081854 89.97254054 -63.36865234 93.30419922 C-67.90751133 97.9317078 -72.51550865 102.35935756 -77.42724609 106.58984375 C-80.54213072 109.3404373 -83.45354267 112.28242122 -86.36865234 115.24169922 C-86.95259766 115.83015625 -87.53654297 116.41861328 -88.13818359 117.02490234 C-89.55070039 118.44899715 -90.96003044 119.87625171 -92.36865234 121.30419922 C-86.31882757 128.62767132 -79.74667728 135.41353984 -72.54833984 141.61669922 C-67.56544879 145.94293021 -62.98663282 150.63508631 -58.36865234 155.34326172 C-55.12867697 158.62120555 -51.86168166 161.79555483 -48.36865234 164.80419922 C-43.43403103 169.05452734 -38.92611846 173.6967826 -34.36865234 178.34326172 C-31.23101227 181.51767101 -28.0808334 184.59805035 -24.68115234 187.49169922 C-18.65440512 192.81969314 -13.05676281 198.61608875 -7.36865234 204.30419922 C-63.46865234 204.63419922 -119.56865234 204.96419922 -177.36865234 205.30419922 C-157.31236891 228.70319656 -127.45783862 240.03345888 -97.23046875 242.47705078 C-65.66432039 244.312561 -34.73391284 232.6507085 -11.24365234 211.86669922 C-9.6117873 210.35323448 -7.98658972 208.83254397 -6.36865234 207.30419922 C-5.61841797 206.61841797 -4.86818359 205.93263672 -4.09521484 205.22607422 C18.04251142 184.25349145 29.1463496 154.18779167 30.90869141 124.19873047 C31.76030596 90.23634195 18.75065892 59.77878045 -4.36865234 35.30419922 C-5.05443359 34.55396484 -5.74021484 33.80373047 -6.44677734 33.03076172 C-27.41936012 10.89303546 -57.48505989 -0.21080272 -87.47412109 -1.97314453 C-120.83616606 -2.80970534 -152.6996064 9.80391652 -176.36865234 33.30419922 Z M-182.36865234 39.30419922 C-203.26014549 63.06024698 -215.40222156 94.31374863 -213.52832031 126.20117188 C-211.27704528 155.85328676 -200.37111627 181.30042625 -180.36865234 203.30419922 C-175.54796452 199.2324364 -170.85246466 195.0514688 -166.24365234 190.74169922 C-165.598396 190.13962646 -164.95313965 189.53755371 -164.28833008 188.91723633 C-159.34821761 184.28198693 -154.54920427 179.52134147 -149.78759766 174.70385742 C-147.10539637 172.00133643 -144.40172602 169.38699052 -141.49365234 166.92919922 C-136.71262971 162.88058857 -132.38078093 158.36616382 -127.99804688 153.89648438 C-124.89845065 150.75430453 -121.75988187 147.72903153 -118.41552734 144.84716797 C-114.11065897 141.13474143 -110.1118562 137.15924875 -106.11865234 133.11669922 C-105.07837891 132.0696582 -105.07837891 132.0696582 -104.01708984 131.00146484 C-102.70029284 129.67583874 -101.38446711 128.34924678 -100.06982422 127.02148438 C-98.1757022 125.10942148 -96.2742189 123.20485452 -94.36865234 121.30419922 C-95.76664063 120.01449219 -95.76664063 120.01449219 -97.19287109 118.69873047 C-104.20123105 112.2084803 -111.1308666 105.67029086 -117.80297852 98.83276367 C-120.52085274 96.06788148 -123.3095993 93.45653501 -126.24755859 90.92529297 C-131.21677345 86.62738601 -135.77098616 81.95260107 -140.36865234 77.26513672 C-143.60862772 73.98719288 -146.87562303 70.81284361 -150.36865234 67.80419922 C-155.30327365 63.5538711 -159.81118623 58.91161584 -164.36865234 54.26513672 C-172.52181954 45.65736564 -172.52181954 45.65736564 -182.36865234 39.30419922 Z " fill="#FFFFFF" transform="translate(241.36865234375,29.69580078125)"/>
</svg>
